<svg xmlns="http://www.w3.org/2000/svg" viewBox="0 0 720 720" role="img" aria-labelledby="title desc">
  <title id="title">Caronas Aqui</title>
  <desc id="desc">Logo azul com marcador de mapa e carro.</desc>
  <rect width="720" height="720" fill="#ffffff"/>
  <defs>
    <linearGradient id="pin" x1="180" y1="70" x2="520" y2="520" gradientUnits="userSpaceOnUse">
      <stop offset="0" stop-color="#65dcff"/>
      <stop offset="0.55" stop-color="#1688dc"/>
      <stop offset="1" stop-color="#0658bd"/>
    </linearGradient>
    <linearGradient id="car" x1="250" y1="215" x2="470" y2="370" gradientUnits="userSpaceOnUse">
      <stop offset="0" stop-color="#5fd9ff"/>
      <stop offset="1" stop-color="#075eb8"/>
    </linearGradient>
    <filter id="shadow" x="-20%" y="-20%" width="140%" height="150%">
      <feDropShadow dx="0" dy="16" stdDeviation="18" flood-color="#0b69c7" flood-opacity="0.18"/>
    </filter>
  </defs>
  <path filter="url(#shadow)" d="M360 54c-124 0-224 97-224 217 0 162 224 340 224 340s224-178 224-340C584 151 484 54 360 54z" fill="url(#pin)"/>
  <circle cx="360" cy="269" r="150" fill="#fff"/>
  <g transform="translate(195 170)">
    <path d="M93 119c13-42 30-67 62-71 37-5 142-5 179 0 32 4 49 29 62 71l20 8c9 3 14 12 11 22l-5 17c-3 9-11 14-20 12l-8-2 3 62c1 26-15 47-39 51v18c0 12-10 22-22 22h-24c-12 0-22-10-22-22v-17H200v17c0 12-10 22-22 22h-24c-12 0-22-10-22-22v-18c-24-4-40-25-39-51l3-62-8 2c-9 2-17-3-20-12l-5-17c-3-10 2-19 11-22l19-8z" fill="url(#car)"/>
    <path d="M154 88c13-20 24-26 48-28 28-3 110-3 138 0 24 2 35 8 48 28l11 31H143l11-31z" fill="#b9ecff" opacity="0.78"/>
    <ellipse cx="139" cy="174" rx="36" ry="24" fill="#f9fdff"/>
    <ellipse cx="389" cy="174" rx="36" ry="24" fill="#f9fdff"/>
    <path d="M205 186c43 18 113 18 156 0" fill="none" stroke="#fff" stroke-width="13" stroke-linecap="round"/>
    <path d="M220 211c33 10 93 10 126 0" fill="none" stroke="#fff" stroke-width="10" stroke-linecap="round" opacity="0.85"/>
  </g>
  <text x="360" y="628" text-anchor="middle" font-family="Inter, Segoe UI, Arial, sans-serif" font-size="78" font-weight="800" fill="#1269b4">Carona</text>
  <text x="360" y="700" text-anchor="middle" font-family="Inter, Segoe UI, Arial, sans-serif" font-size="82" font-weight="800" fill="#26bcea">Aqui</text>
</svg>
