<svg xmlns="http://www.w3.org/2000/svg" viewBox="0 0 900 620" role="img" aria-labelledby="title desc">
  <title id="title">Rota de carona</title>
  <desc id="desc">Mapa claro com uma rota entre dois pontos e chamada para carona.</desc>
  <defs>
    <pattern id="grid" width="58" height="58" patternUnits="userSpaceOnUse">
      <path d="M58 0H0v58" fill="none" stroke="#d9e7f6" stroke-width="1"/>
    </pattern>
    <filter id="cardShadow" x="-20%" y="-20%" width="140%" height="150%">
      <feDropShadow dx="0" dy="14" stdDeviation="18" flood-color="#1269b4" flood-opacity="0.16"/>
    </filter>
  </defs>
  <rect width="900" height="620" rx="24" fill="#f4f9ff"/>
  <rect width="900" height="620" fill="url(#grid)" opacity="0.9"/>
  <path d="M0 202c127-42 211-36 304 5s180 34 301-10 213-32 295 7" fill="none" stroke="#c9edd9" stroke-width="72" opacity="0.78"/>
  <path d="M-10 342c128-28 226-1 323 17s196 8 309-32 203-39 295 8" fill="none" stroke="#ffe7a8" stroke-width="28" opacity="0.75"/>
  <path d="M100 110L764 502" fill="none" stroke="#1f2937" stroke-width="7" stroke-linecap="round"/>
  <g transform="translate(74 75)">
    <path d="M38 0c21 0 38 17 38 38 0 29-38 68-38 68S0 67 0 38C0 17 17 0 38 0z" fill="#ff6a1a"/>
    <circle cx="38" cy="38" r="13" fill="#fff"/>
  </g>
  <g transform="translate(738 470)">
    <circle cx="28" cy="28" r="24" fill="#2f80ed" stroke="#fff" stroke-width="7"/>
  </g>
  <g filter="url(#cardShadow)">
    <rect x="272" y="230" width="356" height="112" rx="10" fill="#117ed6"/>
    <text x="450" y="277" text-anchor="middle" font-family="Inter, Segoe UI, Arial, sans-serif" font-size="28" fill="#fff">Me leve para este</text>
    <text x="450" y="314" text-anchor="middle" font-family="Inter, Segoe UI, Arial, sans-serif" font-size="28" fill="#fff">local</text>
  </g>
  <rect x="0" y="540" width="900" height="80" fill="#fff"/>
  <text x="34" y="590" font-family="Inter, Segoe UI, Arial, sans-serif" font-size="24" fill="#263241">Ponto de encontro</text>
  <path d="M303 582h34m-12-12 12 12-12 12" fill="none" stroke="#667085" stroke-width="5" stroke-linecap="round" stroke-linejoin="round"/>
  <text x="360" y="590" font-family="Inter, Segoe UI, Arial, sans-serif" font-size="24" fill="#263241">Faculdade</text>
</svg>
